# xmcd
#
# Track frame offsets:
#	150
#	17041
#	33126
#	50923
#	76354
#	93384
#	118771
#	137001
#	155205
#	175496
#
# Disc length: 2605 seconds
#
# Revision: 0
# Processed by: cddbd v1.4PL0 Copyright (c) Steve Scherf et al.
# Submitted via: dBpowerAMP V4.0
#
DISCID=850a2b0a
DTITLE=Gerald Collier - Unreleased Country Album
DYEAR=1900
DGENRE=Country
TTITLE0=The Light of My Life
TTITLE1=Hayride to Hell
TTITLE2=Honky Tonk Music
TTITLE3=The Least I Could Do
TTITLE4=Don't Hold Tonight Against Me Tomorrow
TTITLE5=Pure Lonely
TTITLE6=Sad Songs
TTITLE7=If My Heart Had An Ass, I'd Kick It For Lovin' You
TTITLE8=Tell Me Why
TTITLE9=Too Blue For You
EXTD=
EXTT0=
EXTT1=
EXTT2=
EXTT3=
EXTT4=
EXTT5=
EXTT6=
EXTT7=
EXTT8=
EXTT9=
PLAYORDER=
